<svg width="103" height="103" viewBox="0 0 103 103" fill="none" xmlns="http://www.w3.org/2000/svg">
    <path d="M42.3861 47.3892C42.4851 47.5253 42.5862 47.6627 42.6923 47.8024C39.6861 46.9083 36.5201 46.6862 33.4185 47.1518C32.7658 47.2531 32.1198 47.3819 31.4806 47.5385C31.2387 47.3297 31.0089 47.1256 30.7884 46.9253C31.476 46.7645 32.17 46.6344 32.8704 46.5351C36.0662 46.1033 39.3182 46.3952 42.3861 47.3892Z" fill="white"/>
    <path d="M42.9345 48.1156C43.0457 48.2582 43.159 48.402 43.2772 48.549C40.4444 47.846 37.4945 47.7536 34.6231 48.2776C34.0229 48.389 33.432 48.5247 32.8505 48.6846C32.572 48.4566 32.3056 48.2343 32.0485 48.0184C32.6821 47.856 33.3244 47.721 33.9754 47.6136C36.9633 47.1373 40.0186 47.3085 42.9345 48.1156Z" fill="white"/>
    <path d="M43.5468 48.878C43.6697 49.0274 43.7953 49.1783 43.9255 49.3319C41.2975 48.8401 38.596 48.8985 35.9917 49.5034C35.4524 49.6309 34.9247 49.7793 34.4087 49.9489C34.0949 49.6952 33.7917 49.4497 33.4994 49.2124C34.0697 49.0442 34.6517 48.8997 35.2453 48.779C37.9892 48.234 40.8167 48.2678 43.5468 48.878Z" fill="white"/>
    <path d="M44.2203 49.6749C44.3554 49.8317 44.4932 49.9899 44.6355 50.1507C42.2408 49.8844 39.817 50.1232 37.5202 50.8517C37.0495 51.0041 36.594 51.1761 36.1513 51.3641C35.8029 51.0779 35.4652 50.8031 35.1373 50.537C35.6363 50.3553 36.1495 50.1939 36.677 50.0526C39.1388 49.4094 41.7066 49.2809 44.2203 49.6749Z" fill="white"/>
    <path d="M44.9565 50.5102C45.1028 50.6733 45.2524 50.8387 45.4053 51.0063C43.2641 50.9807 41.1446 51.4382 39.2046 52.3447C38.8164 52.5312 38.438 52.7373 38.0708 52.9623C37.6899 52.6388 37.3185 52.3269 36.9567 52.0267C37.3765 51.819 37.813 51.6291 38.2662 51.457C40.4033 50.6681 42.6844 50.3452 44.9565 50.5102Z" fill="white"/>
    <path d="M45.7512 51.3819C45.9083 51.5519 46.0688 51.7242 46.2329 51.899C44.3481 52.1395 42.5582 52.8655 41.0385 54.006C40.7299 54.2445 40.4364 54.502 40.1597 54.7769C39.7474 54.4097 39.3441 54.0555 38.9499 53.7143C39.2888 53.4613 39.642 53.2281 40.0079 53.016C41.7663 52.0252 43.7346 51.4652 45.7512 51.3819Z" fill="white"/>
    <path d="M47.1156 52.8271C45.4711 53.3914 44.0395 54.4471 43.0146 55.8516C42.7904 56.1647 42.5881 56.4928 42.409 56.8337C41.9668 56.4177 41.5334 56.0162 41.1086 55.6293C41.3504 55.3179 41.6132 55.0236 41.8952 54.7481C43.2044 53.5059 44.8348 52.6545 46.6021 52.2898C46.7699 52.4667 46.9411 52.6458 47.1156 52.8271Z" fill="white"/>
    <path d="M48.0507 53.7913C46.6511 54.8017 45.6237 56.2452 45.1273 57.8984C44.9966 58.3109 44.8912 58.731 44.8115 59.1563C44.3408 58.6883 43.8789 58.236 43.4258 57.7993C43.5639 57.4121 43.7298 57.0353 43.9221 56.6719C44.7165 55.17 45.9739 53.9642 47.5075 53.2331C47.6859 53.4172 47.8662 53.6028 48.0507 53.7913Z" fill="white"/>
    <path d="M49.0342 54.788C48.0057 56.3717 47.4068 58.1956 47.2966 60.0807C47.2473 60.5649 47.2141 61.0683 47.1934 61.5893C46.7662 61.1405 46.3248 60.6836 45.8692 60.2186C45.921 59.7248 45.9904 59.2496 46.0806 58.7971C46.3716 57.0555 47.2054 55.4504 48.4631 54.2111C48.6505 54.4011 48.8412 54.594 49.0342 54.788Z" fill="white"/>
    <path d="M50.0459 55.7971C49.4555 57.8609 49.1963 60.0053 49.2781 62.1502C49.2796 62.7074 49.2919 63.2821 49.3084 63.8736C48.931 63.4538 48.5399 63.0259 48.135 62.5898C48.1361 62.0195 48.1474 61.4673 48.1734 60.9356C48.1917 58.9597 48.6323 57.0106 49.4655 55.2189C49.6604 55.4138 49.8538 55.6065 50.0459 55.7971Z" fill="white"/>
    <path d="M50.47 56.2157C50.6589 56.4015 50.8468 56.5858 51.0326 56.7668C50.8491 59.2025 50.8597 61.6489 51.0642 64.0829C51.1002 64.7054 51.1391 65.3453 51.1749 65.9999C50.8428 65.6116 50.498 65.2139 50.1405 64.8068C50.1116 64.1676 50.0854 63.5451 50.0658 62.9413C49.9254 60.6914 50.0611 58.4326 50.47 56.2157Z" fill="white"/>
    <path d="M51.4421 57.1629C51.6251 57.3397 51.8063 57.5139 51.9857 57.6853C52.0814 60.1246 52.4179 62.8525 52.67 65.8699C52.7264 66.5507 52.7764 67.247 52.8201 67.9587C52.5266 67.6025 52.2232 67.2359 51.9083 66.8614C51.8659 66.1595 51.8197 65.4742 51.7696 64.8055C51.527 62.2654 51.4177 59.7144 51.4421 57.1629Z" fill="white"/>
    <path d="M52.3803 58.0596C52.557 58.2267 52.7317 58.3909 52.9042 58.5522C53.3545 61.5305 53.8322 64.5176 54.1157 67.5054C54.1847 68.2336 54.2373 68.9818 54.2744 69.7411C54.0144 69.4187 53.7453 69.0867 53.4672 68.7452C53.4241 67.9893 53.3692 67.2484 53.3024 66.5227C53.0261 63.4366 52.6041 60.6164 52.3803 58.0596Z" fill="white"/>
    <path d="M53.2826 58.9033C53.4513 59.0591 53.6192 59.2129 53.7849 59.3627C54.5396 62.531 55.0867 65.7451 55.4228 68.9847C55.4938 69.755 55.5425 70.5443 55.5697 71.3427C55.3361 71.0557 55.0961 70.7573 54.8491 70.4511C54.8137 69.6494 54.76 68.859 54.6856 68.0884C54.3886 65.0143 53.8494 61.949 53.2826 58.9033Z" fill="white"/>
    <path d="M54.1482 59.689C54.3103 59.8335 54.4712 59.9766 54.6299 60.115C55.5842 63.447 56.2483 66.8554 56.6149 70.302C56.6978 71.0898 56.7251 71.9269 56.7398 72.7555C56.5269 72.5043 56.309 72.2422 56.0861 71.9719C56.0631 71.134 56.0152 70.3052 55.9402 69.4943C55.5981 66.1844 54.9989 62.906 54.1482 59.689Z" fill="white"/>
    <path d="M54.9776 60.4153C55.133 60.549 55.2856 60.6792 55.4377 60.8065C56.526 64.2774 57.2883 67.8422 57.7145 71.4546C57.7979 72.2632 57.8138 73.1268 57.8171 73.9763C57.6191 73.7625 57.4176 73.5362 57.2123 73.3022C57.2014 72.4371 57.1778 71.5618 57.0901 70.7392C56.7177 67.2383 56.0103 63.7811 54.9776 60.4153Z" fill="white"/>
    <path d="M55.7698 61.0807C55.9185 61.2024 56.065 61.3212 56.2097 61.4354C57.4516 65.0007 58.3014 68.6908 58.7443 72.4402C58.8175 73.292 58.8466 74.1471 58.8316 75.0019C58.6426 74.8249 58.4529 74.6364 58.2599 74.4386C58.2702 73.5641 58.2361 72.6895 58.1578 71.8184C57.7191 68.1689 56.9192 64.5721 55.7698 61.0807Z" fill="white"/>
    <path d="M56.5265 61.6822C56.6679 61.7918 56.8077 61.898 56.9459 62.0009C58.3238 65.627 59.2568 69.407 59.7241 73.2578C59.799 74.114 59.8272 74.9736 59.8088 75.8328C59.6251 75.693 59.4411 75.5411 59.2553 75.3805C59.2728 74.496 59.2422 73.6113 59.1638 72.7302C58.7054 68.9596 57.8207 65.2533 56.5265 61.6822Z" fill="white"/>
    <path d="M57.2482 62.2211C57.3831 62.318 57.5163 62.4127 57.6476 62.5025C59.1463 66.1578 60.1628 69.9927 60.6716 73.9106C60.7516 74.7619 60.7849 75.6171 60.7714 76.4721C60.5889 76.3682 60.4064 76.2538 60.2236 76.1289C60.2411 75.2437 60.2091 74.3583 60.1278 73.4768C59.6374 69.6202 58.6702 65.8394 57.2482 62.2211Z" fill="white"/>
    <path d="M57.9352 62.6941C58.064 62.7791 58.1906 62.8611 58.3162 62.9389C59.9223 66.5934 61.0271 70.4484 61.6002 74.3989C61.6911 75.2372 61.7361 76.0797 61.735 76.9228C61.551 76.8541 61.3673 76.7744 61.185 76.6863C61.1937 75.8088 61.1535 74.9316 61.0646 74.0586C60.5237 70.1497 59.4715 66.3289 57.9352 62.6941Z" fill="white"/>
    <path d="M58.5895 63.1037C58.712 63.1766 58.8327 63.2459 58.9519 63.3114C60.656 66.9372 61.8571 70.7787 62.5219 74.7295C62.6285 75.5464 62.6923 76.3683 62.7131 77.1918C62.5243 77.1565 62.3375 77.1117 62.1533 77.0577C62.145 76.1962 62.0895 75.3357 61.9871 74.4802C61.372 70.5524 60.229 66.7256 58.5895 63.1037Z" fill="white"/>
    <path d="M59.212 63.4497C59.3282 63.5103 59.4427 63.5672 59.5555 63.6205C61.35 67.1924 62.6575 70.9889 63.4431 74.9084C63.5823 75.6805 63.6504 76.5008 63.7129 77.2876C63.5205 77.2848 63.3296 77.2729 63.1404 77.252C63.1057 76.4137 63.0277 75.5778 62.9066 74.7476C62.1877 70.8329 60.945 67.0328 59.212 63.4497Z" fill="white"/>
    <path d="M59.8026 63.7314C59.9128 63.7794 60.0213 63.8247 60.1285 63.866C62.0058 67.3633 63.431 71.0849 64.3698 74.9416C64.5348 75.6843 64.6383 76.4683 64.7374 77.2187C64.54 77.2463 64.3447 77.2648 64.1502 77.2755C64.0702 76.4804 63.9842 75.6498 63.8278 74.8648C62.9753 70.9947 61.6222 67.252 59.8026 63.7314Z" fill="white"/>
    <path d="M60.3619 63.9504C60.4658 63.9862 60.5692 64.0199 60.6704 64.0495C62.5792 67.5651 64.3193 70.9321 65.3009 74.8366C65.4854 75.5687 65.6432 76.2869 65.7845 76.9948C65.5828 77.0508 65.3833 77.0974 65.1846 77.1378C65.0644 76.383 64.9392 75.5935 64.7527 74.8404C63.7363 71.0457 62.262 67.3889 60.3619 63.9504Z" fill="white"/>
    <path d="M60.8913 64.1088C60.9894 64.1335 61.0862 64.1551 61.1812 64.1733C63.2467 67.4526 64.942 70.9508 66.2361 74.604C66.4593 75.2938 66.6617 75.9674 66.8504 76.629C66.6463 76.7112 66.4423 76.7844 66.2401 76.8522C66.0739 76.1433 65.8914 75.4216 65.6829 74.6845C64.6012 70.8641 62.8245 67.5512 60.8913 64.1088Z" fill="white"/>
    <path d="M61.3883 64.2076C61.4808 64.221 61.5718 64.2316 61.6614 64.2393C63.7901 67.4085 65.6338 70.76 67.1708 74.2545C67.4375 74.8973 67.6875 75.5224 67.9275 76.1328C67.7219 76.2384 67.5168 76.3372 67.312 76.4291C67.095 75.7702 66.8657 75.0962 66.6149 74.4039C65.2205 70.8378 63.4694 67.4217 61.3883 64.2076Z" fill="white"/>
    <path d="M61.8548 64.2484C61.941 64.2506 62.026 64.2512 62.1089 64.2479C64.3007 67.3042 66.3012 70.4931 68.0992 73.7963C68.4116 74.3898 68.7133 74.9624 69.0066 75.5186C68.802 75.6454 68.5964 75.7653 68.3914 75.8801C68.1202 75.2753 67.8394 74.6537 67.543 74.0114C65.9003 70.6158 63.9986 67.3519 61.8548 64.2484Z" fill="white"/>
    <path d="M62.2884 64.2348C62.3679 64.2268 62.4474 64.2171 62.5237 64.2037C64.7743 67.1653 66.9597 70.1595 69.0132 73.2432C69.3729 73.7832 69.7271 74.3023 70.0757 74.8005C69.8737 74.946 69.671 75.085 69.4678 75.2202C69.1405 74.6723 68.8062 74.106 68.4617 73.5162C66.5834 70.2989 64.4754 67.2628 62.2884 64.2348Z" fill="white"/>
    <path d="M62.6883 64.1672C62.7616 64.1495 62.8337 64.1296 62.9035 64.1066C65.252 66.9271 67.5563 69.8086 69.9039 72.6034C70.3122 73.0896 70.7202 73.5496 71.1237 73.9902C70.9272 74.1523 70.7286 74.3085 70.5292 74.4609C70.1452 73.9726 69.7565 73.4641 69.3625 72.9291C67.1921 69.9819 64.9677 67.0513 62.6883 64.1672Z" fill="white"/>
    <path d="M70.235 72.2621C67.7767 69.6115 65.4346 66.797 63.0534 64.0498C63.1201 64.0229 63.1851 63.9933 63.2476 63.9608C65.7049 66.6487 68.126 69.4071 70.7611 71.8897C71.2181 72.3202 71.6797 72.7221 72.1374 73.1024C71.9489 73.2777 71.7568 73.4484 71.5639 73.6166C71.1237 73.1896 70.6787 72.7402 70.235 72.2621Z" fill="white"/>
    <path d="M71.0699 71.5247C68.3772 69.1119 65.8111 66.5614 63.3819 63.8834C63.4409 63.8474 63.4984 63.8094 63.5536 63.7683C66.047 66.4064 68.7275 68.861 71.5744 71.1129C72.0798 71.488 72.5923 71.8294 73.1018 72.1489C72.9237 72.335 72.7421 72.5175 72.5575 72.6976C72.0626 72.3334 71.5636 71.9459 71.0699 71.5247Z" fill="white"/>
    <path d="M63.6707 63.672C63.7227 63.6282 63.7723 63.5816 63.8192 63.5323C66.5326 65.9842 69.1732 68.4589 72.3321 70.285C72.885 70.6045 73.4463 70.8874 74.0062 71.146C73.8407 71.3406 73.6714 71.5319 73.4982 71.722C72.9501 71.4206 72.3986 71.0944 71.8557 70.7305C68.8578 68.7212 66.2912 66.1754 63.6707 63.672Z" fill="white"/>
    <path d="M63.9189 63.418C63.9626 63.3653 64.0042 63.3115 64.0429 63.2542C66.8994 65.5985 69.6414 67.9185 73.0236 69.4171C73.6215 69.6818 74.229 69.9053 74.8355 70.1048C74.6855 70.3053 74.53 70.5041 74.3713 70.7016C73.7731 70.4618 73.1734 70.1963 72.5826 69.8891C69.3459 68.2068 66.676 65.8104 63.9189 63.418Z" fill="white"/>
    <path d="M64.1236 63.1231C64.1583 63.0628 64.1916 63.0011 64.2211 62.9364C67.2243 65.1746 70.0618 67.3355 73.6375 68.5177C74.274 68.7255 74.921 68.8997 75.5757 69.0394C75.444 69.2436 75.3061 69.446 75.1638 69.6484C74.5111 69.4703 73.8683 69.2578 73.238 69.0118C69.7933 67.6499 67.0249 65.4093 64.1236 63.1231Z" fill="white"/>
    <path d="M64.2818 62.7888C64.3076 62.7213 64.3321 62.6526 64.3526 62.5808C67.5002 64.7127 70.4276 66.7121 74.1622 67.5976C74.8393 67.7557 75.5244 67.877 76.2146 67.9609C76.1034 68.1666 75.9845 68.3712 75.8615 68.5756C75.1701 68.4573 74.4858 68.301 73.8116 68.1073C70.1896 67.0508 67.3285 64.9693 64.2818 62.7888Z" fill="white"/>
    <path d="M64.3923 62.419C64.4089 62.345 64.423 62.269 64.4341 62.1907C67.7177 64.2131 70.7287 66.0538 74.5878 66.6672C75.3003 66.7783 76.0183 66.8505 76.7387 66.8833C76.6507 67.0879 76.5556 67.2924 76.4532 67.4968C75.7273 67.434 75.0055 67.3308 74.2912 67.1874C70.5263 66.4145 67.5785 64.492 64.3923 62.419Z" fill="white"/>
    <path d="M64.4518 62.0133C64.4583 61.9327 64.4622 61.8509 64.4624 61.7658C67.8669 63.6744 70.951 65.3589 74.9018 65.7312C75.6442 65.7994 76.3899 65.8268 77.1354 65.8134C77.0726 66.0158 77.0006 66.2177 76.9237 66.4211C76.1689 66.4089 75.4154 66.3541 74.6669 66.2569C70.7931 65.7422 67.7665 63.9756 64.4518 62.0133Z" fill="white"/>
    <path d="M74.9284 65.3258C70.978 65.0352 67.8838 63.4228 64.4574 61.575C64.4534 61.488 64.4473 61.3996 64.4366 61.3085C67.9417 63.0998 71.0875 64.6333 75.0948 64.797C75.8605 64.8267 76.6273 64.815 77.3918 64.7619C77.3569 64.9603 77.3122 65.1588 77.2615 65.3589C76.4838 65.3915 75.7049 65.3804 74.9284 65.3258Z" fill="white"/>
    <path d="M64.4072 61.1033C64.3924 61.0103 64.3754 60.9159 64.354 60.8189C67.9341 62.489 71.1262 63.8771 75.157 63.8672C75.9387 63.8638 76.7197 63.8186 77.4967 63.732C77.4916 63.9253 77.4761 64.1203 77.4538 64.3158C76.6594 64.3867 75.8617 64.4133 75.0644 64.3955C71.0729 64.2983 67.9229 62.8326 64.4072 61.1033Z" fill="white"/>
    <path d="M64.2997 60.6008C64.2735 60.5015 64.2452 60.4017 64.2122 60.2993C67.8372 61.8433 71.0595 63.0935 75.079 62.9428C75.8691 62.9121 76.6572 62.8401 77.4398 62.7271C77.4662 62.9156 77.482 63.1056 77.4905 63.297C76.6864 63.3989 75.8773 63.4571 75.0669 63.4711C71.0653 63.5315 67.8778 62.2086 64.2997 60.6008Z" fill="white"/>
    <path d="M64.1326 60.0685C64.0947 59.9633 64.0545 59.8568 64.0098 59.7476C67.6479 61.1636 70.8811 62.2799 74.8538 62.0223C75.6436 61.97 76.4303 61.8772 77.2106 61.7443C77.2706 61.9293 77.3198 62.116 77.3602 62.3027C76.554 62.429 75.7416 62.5121 74.9264 62.5515C70.9515 62.7373 67.7416 61.549 64.1326 60.0685Z" fill="white"/>
    <path d="M63.904 59.5042C63.8547 59.3935 63.8018 59.2809 63.7452 59.1664C67.3614 60.4478 70.5811 61.4362 74.474 61.0992C75.2546 61.0312 76.0314 60.9242 76.8013 60.7784C76.896 60.9612 76.9799 61.1443 77.0552 61.3279C76.2546 61.4715 75.447 61.5731 74.6358 61.6322C70.7217 61.9126 67.511 60.8542 63.904 59.5042Z" fill="white"/>
    <path d="M63.6129 58.9081C63.5509 58.7908 63.486 58.6728 63.4168 58.5518C66.974 59.6943 70.1523 60.5581 73.9335 60.1657C74.6912 60.0868 75.4483 59.9704 76.2051 59.8166C76.3363 59.9999 76.4552 60.1825 76.5654 60.3647C75.7795 60.5194 74.9862 60.6336 74.1885 60.7071C70.367 61.0557 67.1823 60.1241 63.6129 58.9081Z" fill="white"/>
    <path d="M63.257 58.2811C63.1829 58.158 63.1062 58.0331 63.0249 57.9058C66.4875 58.9033 69.5951 59.6416 73.2299 59.2101C73.9615 59.1228 74.6907 59.0008 75.4174 58.8441C75.5854 59.0315 75.741 59.2171 75.8874 59.4011C75.1211 59.5611 74.3521 59.6831 73.5805 59.7671C69.8843 60.1637 66.7529 59.3557 63.257 58.2811Z" fill="white"/>
    <path d="M62.838 57.6215C62.7514 57.4915 62.6628 57.361 62.5688 57.2276C65.8998 58.0704 68.9048 58.6806 72.3588 58.2159C73.0557 58.1226 73.7478 57.9974 74.435 57.8402C74.6405 58.036 74.8332 58.2278 75.0171 58.4179C74.285 58.579 73.5488 58.7055 72.8085 58.7977C69.2719 59.231 66.2242 58.5487 62.838 57.6215Z" fill="white"/>
    <path d="M62.3544 56.9292C62.2559 56.7936 62.1536 56.6559 62.0477 56.5164C65.0535 57.4112 68.2194 57.6336 71.3208 57.1676C71.974 57.0669 72.6201 56.9377 73.2593 56.7802C73.5011 56.9893 73.7312 57.1932 73.9516 57.3934C73.2642 57.555 72.5702 57.6852 71.8695 57.7839C68.6738 58.2158 65.422 57.9237 62.3544 56.9292Z" fill="white"/>
    <path d="M61.8058 56.2024C61.6951 56.0602 61.5813 55.9159 61.463 55.769C64.2957 56.472 67.2455 56.5647 70.1167 56.0408C70.7173 55.9299 71.3083 55.7941 71.8896 55.6336C72.1678 55.8618 72.4352 56.0838 72.6917 56.2996C72.0582 56.462 71.4158 56.597 70.7647 56.7046C67.7769 57.1812 64.7216 57.0099 61.8058 56.2024Z" fill="white"/>
    <path d="M61.1941 55.4394C61.0714 55.2908 60.9451 55.1396 60.8151 54.9859C63.443 55.478 66.1445 55.4196 68.7487 54.8146C69.2878 54.6873 69.8153 54.539 70.3313 54.3696C70.6453 54.623 70.9486 54.8686 71.2412 55.1062C70.6704 55.274 70.0889 55.4198 69.4949 55.5391C66.7512 56.0846 63.9239 56.0506 61.1941 55.4394Z" fill="white"/>
    <path d="M60.5196 54.6421C60.3851 54.4859 60.247 54.3276 60.1053 54.1672C62.4996 54.4336 64.9232 54.1949 67.2195 53.4665C67.6902 53.314 68.1467 53.1433 68.5891 52.9543C68.9374 53.2398 69.275 53.5152 69.602 53.7807C69.1031 53.9624 68.5903 54.124 68.0636 54.2656C65.6017 54.9091 63.0334 55.0373 60.5196 54.6421Z" fill="white"/>
    <path d="M59.7839 53.8069C59.6379 53.6436 59.4883 53.4783 59.3352 53.3108C61.4761 53.3364 63.5953 52.8789 65.535 51.9723C65.9237 51.7864 66.3023 51.5804 66.6694 51.355C67.0504 51.6785 67.4215 51.9906 67.783 52.2913C67.3633 52.4988 66.9276 52.6897 66.4745 52.8607C64.3373 53.6494 62.0561 53.972 59.7839 53.8069Z" fill="white"/>
    <path d="M58.99 52.9363C58.8329 52.7664 58.6718 52.5934 58.5079 52.4188C60.3925 52.1786 62.1823 51.4527 63.7018 50.3123C64.0108 50.074 64.3045 49.8166 64.5813 49.5415C64.9936 49.9088 65.3967 50.2629 65.7905 50.604C65.4519 50.857 65.099 51.0902 64.7333 51.3022C62.9752 52.2939 61.0068 52.8539 58.99 52.9363Z" fill="white"/>
    <path d="M57.6249 51.4904C59.6525 50.8134 61.3393 49.3778 62.3316 47.4846C62.7735 47.9 63.2068 48.3012 63.6313 48.688C63.3904 49.0001 63.1277 49.2946 62.8452 49.5696C61.5359 50.8115 59.9059 51.6631 58.1387 52.0284C57.9705 51.851 57.7994 51.672 57.6249 51.4904Z" fill="white"/>
    <path d="M56.6907 50.5271C58.0895 49.5164 59.1165 48.0731 59.6131 46.4203C59.7441 46.008 59.8498 45.588 59.9293 45.1628C60.4 45.6308 60.8622 46.0834 61.3159 46.5207C61.1766 46.9071 61.0104 47.2833 60.8184 47.6465C60.0237 49.1481 58.7667 50.354 57.2334 51.0857C57.0553 50.9015 56.8744 50.7152 56.6907 50.5271Z" fill="white"/>
    <path d="M55.7067 49.5303C56.7349 47.9466 57.3337 46.1228 57.4442 44.2378C57.4933 43.7539 57.5276 43.2508 57.5472 42.7285C57.9745 43.178 58.416 43.6352 58.8715 44.1002C58.8195 44.594 58.7502 45.0691 58.66 45.5217C58.3685 47.2629 57.5346 48.8677 56.2773 50.107C56.0899 49.917 55.8997 49.7247 55.7067 49.5303Z" fill="white"/>
    <path d="M54.6948 48.5204C55.2845 46.4566 55.5435 44.3125 55.4622 42.1677C55.4602 41.611 55.4485 41.0359 55.4319 40.4443C55.8093 40.8642 56.2006 41.2923 56.6057 41.7286C56.6042 42.2985 56.5912 42.8498 56.5666 43.3826C56.5491 45.3582 56.1086 47.3071 55.2748 49.0983C55.0799 48.9034 54.8866 48.7108 54.6948 48.5204Z" fill="white"/>
    <path d="M54.2705 48.1028C54.0813 47.9165 53.8943 47.7322 53.7078 47.551C53.8912 45.1154 53.8806 42.669 53.676 40.235C53.6395 39.6122 53.6025 38.9733 53.565 38.3184C53.8979 38.7069 54.2419 39.1053 54.5994 39.5114C54.6284 40.1506 54.6553 40.7734 54.6748 41.377C54.8151 43.6271 54.6794 45.8858 54.2705 48.1028Z" fill="white"/>
    <path d="M53.2985 47.1546C53.1153 46.9779 52.9345 46.8034 52.7551 46.6319C52.6594 44.1935 52.3226 41.4658 52.0706 38.4485C52.0134 37.7674 51.9632 37.0711 51.9198 36.3594C52.2137 36.7161 52.5171 37.0827 52.8316 37.4567C52.8742 38.1583 52.9206 38.8435 52.9707 39.5123C53.2137 42.0522 53.3232 44.6031 53.2985 47.1546Z" fill="white"/>
    <path d="M52.3603 46.2583C52.1841 46.0916 52.0098 45.9274 51.8372 45.7658C51.386 42.7875 50.908 39.8015 50.6245 36.813C50.5553 36.0848 50.5032 35.3362 50.4658 34.5771C50.7261 34.8994 50.9952 35.2314 51.2729 35.5733C51.3157 36.3285 51.3727 37.0698 51.4376 37.7949C51.7152 40.8814 52.1364 43.7015 52.3603 46.2583Z" fill="white"/>
    <path d="M51.4576 45.4142C51.289 45.2583 51.1217 45.1051 50.9556 44.9545C50.2005 41.7864 49.6533 38.5724 49.3173 35.3329C49.2457 34.5622 49.1978 33.774 49.1706 32.9756C49.4037 33.2622 49.6432 33.5601 49.891 33.8666C49.9263 34.6683 49.9798 35.4589 50.0543 36.2295C50.3517 39.3032 50.8908 42.3684 51.4576 45.4142Z" fill="white"/>
    <path d="M50.5922 44.6293C50.4297 44.4841 50.2694 44.3422 50.1111 44.2035C49.1565 40.8715 48.492 37.4632 48.1251 34.0167C48.0422 33.2289 48.0148 32.3919 47.9999 31.5635C48.2132 31.8143 48.4302 32.0764 48.6534 32.3473C48.677 33.1854 48.725 34.0134 48.8001 34.8239C49.1418 38.134 49.741 41.4124 50.5922 44.6293Z" fill="white"/>
    <path d="M49.7634 43.9031C49.6079 43.7697 49.4541 43.6388 49.3027 43.5119C48.2141 40.0411 47.4517 36.4765 47.0252 32.8643C46.942 32.0556 46.9257 31.1924 46.9223 30.3428C47.1204 30.5567 47.3213 30.7827 47.5272 31.017C47.5374 31.8818 47.5621 32.7568 47.6496 33.5798C48.0222 37.0807 48.7301 40.5376 49.7634 43.9031Z" fill="white"/>
    <path d="M48.9707 43.2373C48.8226 43.1158 48.6759 42.9974 48.5313 42.8829C47.2884 39.3179 46.438 35.6281 45.9953 31.8787C45.9215 31.027 45.8926 30.172 45.9086 29.3172C46.0969 29.494 46.2871 29.682 46.4803 29.8796C46.4695 30.7543 46.5034 31.629 46.5819 32.5003C47.0211 36.1495 47.8212 39.7462 48.9707 43.2373Z" fill="white"/>
    <path d="M48.2142 42.635C48.0732 42.5259 47.9327 42.419 47.7946 42.3167C46.4163 38.6908 45.4832 34.9109 45.0158 31.0602C44.941 30.2041 44.9126 29.3445 44.931 28.4854C45.1147 28.6252 45.299 28.7768 45.4848 28.9375C45.4675 29.8219 45.498 30.7067 45.5762 31.5878C46.0349 35.3582 46.9199 39.0643 48.2142 42.635Z" fill="white"/>
    <path d="M47.4926 42.0967C47.3576 42.0002 47.2249 41.9058 47.0932 41.8156C45.5943 38.1605 44.5776 34.3258 44.0685 30.4082C43.9883 29.5567 43.9552 28.7014 43.969 27.8462C44.1517 27.9499 44.3338 28.0657 44.5166 28.1896C44.4993 29.0747 44.5313 29.9602 44.6124 30.8417C45.1031 34.6982 46.0705 38.4787 47.4926 42.0967Z" fill="white"/>
    <path d="M46.8053 41.6235C46.6767 41.5382 46.5498 41.4568 46.4248 41.3792C44.8179 37.7248 43.7129 33.87 43.1396 29.9194C43.0488 29.081 43.0039 28.2384 43.0051 27.3951C43.1891 27.4639 43.3728 27.5437 43.5557 27.632C43.5467 28.5093 43.5867 29.3865 43.6754 30.2594C44.2162 34.1682 45.2685 37.989 46.8053 41.6235Z" fill="white"/>
    <path d="M46.1507 41.2137C46.0287 41.1413 45.9074 41.0716 45.7883 41.006C44.0838 37.3804 42.8826 33.539 42.2181 29.5882C42.1113 28.7714 42.0475 27.9495 42.0269 27.1259C42.2157 27.1612 42.4025 27.206 42.5867 27.26C42.5946 28.1214 42.6498 28.9819 42.7522 29.8372C43.3678 33.7651 44.511 37.5918 46.1507 41.2137Z" fill="white"/>
    <path d="M45.5282 40.8679C45.4122 40.8081 45.2974 40.7504 45.1845 40.6971C43.3901 37.1251 42.0825 33.3288 41.2968 29.4094C41.1576 28.6373 41.0895 27.8171 41.027 27.0302C41.2192 27.0324 41.4101 27.0457 41.5995 27.0658C41.6342 27.9042 41.7121 28.7402 41.833 29.5705C42.5521 33.4851 43.7949 37.285 45.5282 40.8679Z" fill="white"/>
    <path d="M44.9378 40.5863C44.8275 40.5383 44.7192 40.4929 44.6121 40.4515C42.7348 36.9545 41.3096 33.2332 40.3708 29.3769C40.2053 28.6337 40.1018 27.8498 40.0028 27.0993C40.2001 27.0717 40.3959 27.0536 40.5899 27.0425C40.6699 27.8376 40.7561 28.6679 40.913 29.4533C41.7655 33.3233 43.1185 37.0658 44.9378 40.5863Z" fill="white"/>
    <path d="M44.3783 40.367C44.274 40.3308 44.1706 40.2972 44.0694 40.2676C42.1613 36.7521 40.4208 33.3854 39.4391 29.481C39.2546 28.7489 39.0969 28.0308 38.9554 27.3228C39.1572 27.2669 39.3567 27.2193 39.5551 27.1792C39.676 27.9343 39.8015 28.7244 39.9876 29.477C41.0037 33.2718 42.4781 36.9287 44.3783 40.367Z" fill="white"/>
    <path d="M43.8496 40.2094C43.7512 40.1849 43.654 40.1619 43.5589 40.1438C41.493 36.865 39.7974 33.3668 38.5034 29.7138C38.2806 29.0243 38.0782 28.3499 37.89 27.6887C38.0941 27.6066 38.2974 27.5331 38.4998 27.466C38.666 28.1749 38.8485 28.8966 39.0571 29.6338C40.1392 33.4537 41.9157 36.7667 43.8496 40.2094Z" fill="white"/>
    <path d="M43.3519 40.1104C43.2597 40.0974 43.1682 40.0862 43.0791 40.079C40.9503 36.9098 39.1063 33.5583 37.569 30.0636C37.3023 29.4208 37.0524 28.7957 36.8124 28.1854C37.0179 28.0798 37.2231 27.981 37.4279 27.889C37.6448 28.548 37.8746 29.2216 38.1256 29.9137C39.5197 33.4799 41.2706 36.8963 43.3519 40.1104Z" fill="white"/>
    <path d="M42.8855 40.0694C42.7995 40.0669 42.7145 40.0663 42.6316 40.0696C40.4396 37.0133 38.4388 33.8243 36.6406 30.521C36.3284 29.9281 36.0272 29.3551 35.7337 28.7991C35.9386 28.6721 36.1436 28.5513 36.3487 28.437C36.6198 29.0418 36.9007 29.6642 37.197 30.3066C38.8402 33.7019 40.7419 36.9657 42.8855 40.0694Z" fill="white"/>
    <path d="M42.452 40.0827C42.3724 40.0907 42.2936 40.1006 42.2171 40.1143C39.9663 37.1528 37.7804 34.1591 35.7264 31.075C35.3669 30.5347 35.0128 30.0155 34.6642 29.5173C34.8662 29.3719 35.0695 29.2323 35.2728 29.0971C35.5998 29.6451 35.9338 30.2119 36.2783 30.8016C38.1565 34.019 40.2648 37.055 42.452 40.0827Z" fill="white"/>
    <path d="M42.0527 40.1506C41.9787 40.168 41.9069 40.1877 41.8371 40.2106C39.4884 37.3904 37.1843 34.5087 34.8362 31.7143C34.4276 31.2284 34.0192 30.7679 33.6164 30.3275C33.8127 30.1657 34.0113 30.0095 34.2109 29.8568C34.5944 30.3447 34.9842 30.8538 35.378 31.389C37.5475 34.3363 39.7725 37.2569 42.0527 40.1506Z" fill="white"/>
    <path d="M34.5056 32.0568C36.9636 34.7068 39.3059 37.5211 41.6872 40.2682C41.6206 40.295 41.5555 40.3248 41.493 40.3573C39.0355 37.6695 36.6143 34.9112 33.979 32.4288C33.5216 31.9979 33.0604 31.5964 32.6027 31.2161C32.792 31.0411 32.9835 30.8707 33.1764 30.7025C33.6165 31.1295 34.0616 31.5781 34.5056 32.0568Z" fill="white"/>
    <path d="M41.3588 40.4339C41.2997 40.4694 41.2422 40.5079 41.1869 40.5492C38.6934 37.9116 36.0129 35.4572 33.1662 33.2052C32.6603 32.83 32.1474 32.4882 31.6378 32.1686C31.8159 31.9826 31.9974 31.7995 32.1825 31.6195C32.6779 31.9841 33.1766 32.3719 33.6703 32.7931C36.363 35.2059 38.9293 37.7561 41.3588 40.4339Z" fill="white"/>
    <path d="M41.07 40.6458C41.018 40.69 40.9682 40.7368 40.9208 40.786C38.2073 38.3342 35.567 35.8596 32.408 34.0334C31.8553 33.7137 31.2927 33.4313 30.733 33.1725C30.8985 32.9778 31.069 32.786 31.2421 32.5962C31.7901 32.8976 32.3412 33.2241 32.8841 33.5881C35.8829 35.5974 38.4494 38.1435 41.07 40.6458Z" fill="white"/>
    <path d="M40.8218 40.9003C40.7777 40.9529 40.7362 41.0076 40.6976 41.0642C37.8409 38.7202 35.0988 36.4002 31.7162 34.902C31.1243 34.6425 30.5196 34.4128 29.9046 34.2139C30.0547 34.0135 30.2103 33.8146 30.3687 33.6173C30.9671 33.8568 31.5668 34.1224 32.1577 34.4296C35.3939 36.1114 38.064 38.5085 40.8218 40.9003Z" fill="white"/>
    <path d="M40.6167 41.1949C40.582 41.2552 40.5489 41.3166 40.519 41.3809C37.5156 39.143 34.6774 36.9827 31.1021 35.8001C30.4656 35.5928 29.8187 35.4189 29.164 35.2792C29.2961 35.0755 29.4342 34.872 29.5763 34.6698C30.2289 34.848 30.8718 35.0605 31.5021 35.3064C34.9469 36.668 37.7153 38.9087 40.6167 41.1949Z" fill="white"/>
    <path d="M40.4586 41.5294C40.4321 41.5967 40.4089 41.6658 40.3881 41.737C37.2403 39.6061 34.3121 37.6049 30.5779 36.72C29.9009 36.562 29.2158 36.441 28.5257 36.3574C28.6367 36.1519 28.7551 35.9477 28.8777 35.7429C29.5694 35.861 30.2541 36.0173 30.9285 36.2111C34.5507 37.2674 37.4121 39.3487 40.4586 41.5294Z" fill="white"/>
    <path d="M40.3483 41.8993C40.3322 41.9738 40.3176 42.0493 40.3071 42.1272C37.0233 40.1057 34.012 38.2645 30.1527 37.6514C29.4401 37.5402 28.7219 37.4681 28.0015 37.4355C28.0895 37.2309 28.186 37.0265 28.2873 36.8219C29.0129 36.8844 29.7345 36.9879 30.4486 37.1319C34.2137 37.9037 37.1617 39.8269 40.3483 41.8993Z" fill="white"/>
    <path d="M40.2893 42.3055C40.2829 42.3861 40.2787 42.4681 40.2784 42.5525C36.8733 40.6444 33.7883 38.9599 29.8387 38.5874C29.0962 38.5194 28.3506 38.4919 27.6051 38.5052C27.6676 38.303 27.7395 38.1013 27.8163 37.8979C28.571 37.9101 29.3244 37.9647 30.0729 38.0615C33.9468 38.5769 36.9739 40.3432 40.2893 42.3055Z" fill="white"/>
    <path d="M29.8116 38.9928C33.7617 39.2827 36.8562 40.8958 40.283 42.7431C40.287 42.8302 40.2934 42.9184 40.3038 43.0096C36.799 41.2191 33.6528 39.6851 29.645 39.5209C28.8793 39.4916 28.1126 39.5035 27.3482 39.5567C27.3834 39.359 27.4278 39.1598 27.4786 38.9597C28.2563 38.9271 29.0352 38.9382 29.8116 38.9928Z" fill="white"/>
    <path d="M40.3327 43.2141C40.348 43.3076 40.365 43.402 40.3866 43.4987C36.8064 41.8295 33.6136 40.4411 29.5831 40.4509C28.8014 40.4543 28.0204 40.4994 27.2435 40.5861C27.248 40.3923 27.2638 40.1981 27.2861 40.0025C28.0804 39.9314 28.8781 39.9044 29.6754 39.9218C33.667 40.02 36.8173 41.4854 40.3327 43.2141Z" fill="white"/>
    <path d="M40.4404 43.7165C40.4664 43.816 40.4956 43.9167 40.5283 44.0192C36.9026 42.4751 33.6803 41.2249 29.6608 41.3755C28.8707 41.406 28.0826 41.478 27.3 41.5912C27.2739 41.4025 27.258 41.2124 27.2496 41.0211C28.0537 40.9186 28.8628 40.8605 29.6732 40.847C33.6737 40.786 36.8627 42.11 40.4404 43.7165Z" fill="white"/>
    <path d="M40.6079 44.2495C40.6459 44.3547 40.6857 44.4607 40.7306 44.5697C37.0922 43.1548 33.8585 42.038 29.8864 42.296C29.0964 42.3485 28.3097 42.4411 27.5292 42.5734C27.4694 42.3884 27.4201 42.2026 27.3794 42.0161C28.1858 41.8894 28.9985 41.8062 29.8138 41.7667C33.7883 41.5806 36.9992 42.7697 40.6079 44.2495Z" fill="white"/>
    <path d="M40.8368 44.815C40.8864 44.9255 40.939 45.0381 40.995 45.1527C37.3795 43.8715 34.1591 42.8829 30.2664 43.2196C29.4857 43.2877 28.7089 43.3949 27.9389 43.5407C27.8437 43.3575 27.7606 43.1745 27.6854 42.9907C28.4859 42.8471 29.2933 42.7457 30.1044 42.6869C34.0185 42.4065 37.2294 43.4647 40.8368 44.815Z" fill="white"/>
    <path d="M41.128 45.4095C41.1896 45.5264 41.2541 45.6449 41.3233 45.7657C37.7652 44.6225 34.5871 43.7602 30.8061 44.1525C30.048 44.2309 29.2909 44.3471 28.5347 44.5013C28.4035 44.3179 28.2846 44.1354 28.1737 43.9529C28.9599 43.7985 29.7533 43.6841 30.5511 43.6102C34.3731 43.2619 37.5588 44.1942 41.128 45.4095Z" fill="white"/>
    <path d="M41.4829 46.0375C41.5569 46.1606 41.6341 46.285 41.7149 46.4118C38.2525 45.415 35.1447 44.6769 31.5105 45.1089C30.7786 45.1956 30.0492 45.3174 29.3224 45.4744C29.1544 45.287 28.9989 45.1014 28.8522 44.9175C29.6191 44.7578 30.3882 44.6358 31.1593 44.5514C34.8555 44.1539 37.9874 44.9625 41.4829 46.0375Z" fill="white"/>
    <path d="M41.9027 46.6967C41.9891 46.8261 42.0778 46.9566 42.1718 47.0905C38.8405 46.2473 35.8348 45.6379 32.381 46.1023C31.684 46.1955 30.9918 46.3207 30.3041 46.4778C30.0993 46.2822 29.9065 46.0905 29.7233 45.9006C30.455 45.739 31.191 45.6124 31.9313 45.5206C35.4684 45.0868 38.5165 45.7695 41.9027 46.6967Z" fill="white"/>
    <rect x="6" y="6.5" width="91" height="91" rx="45.5" stroke="#F1F1F1"/>
</svg>
